<svg width="237" height="94" viewBox="0 0 237 94" fill="none" xmlns="http://www.w3.org/2000/svg">
<g filter="url(#filter0_d_656_3170)">
<rect x="3" y="1" width="233" height="90" rx="12" fill="#EFF3F3"/>
</g>
<g filter="url(#filter1_d_656_3170)">
<rect x="20" y="18" width="57" height="57" rx="12" fill="#CEEE6A"/>
</g>
<path d="M63.7681 56.678C63.7681 56.9479 63.6609 57.2068 63.47 57.3977C63.2791 57.5886 63.0202 57.6958 62.7503 57.6958H34.2503C33.9803 57.6958 33.7214 57.5886 33.5305 57.3977C33.3397 57.2068 33.2324 56.9479 33.2324 56.678C33.2324 56.408 33.3397 56.1491 33.5305 55.9582C33.7214 55.7673 33.9803 55.6601 34.2503 55.6601H62.7503C63.0202 55.6601 63.2791 55.7673 63.47 55.9582C63.6609 56.1491 63.7681 56.408 63.7681 56.678ZM34.2884 42.7053C34.2279 42.4919 34.2388 42.2645 34.3194 42.0578C34.4 41.851 34.546 41.6763 34.735 41.5602L47.9672 33.4174C48.1275 33.3188 48.3121 33.2666 48.5003 33.2666C48.6885 33.2666 48.873 33.3188 49.0334 33.4174L62.2655 41.5602C62.4547 41.6762 62.6007 41.8508 62.6815 42.0574C62.7622 42.264 62.7733 42.4914 62.7129 42.7049C62.6526 42.9184 62.5241 43.1063 62.3471 43.24C62.1701 43.3738 61.9543 43.446 61.7324 43.4458H58.6789V51.5887H60.7146C60.9845 51.5887 61.2434 51.6959 61.4343 51.8868C61.6252 52.0777 61.7324 52.3366 61.7324 52.6065C61.7324 52.8765 61.6252 53.1354 61.4343 53.3263C61.2434 53.5171 60.9845 53.6244 60.7146 53.6244H36.286C36.016 53.6244 35.7571 53.5171 35.5663 53.3263C35.3754 53.1354 35.2681 52.8765 35.2681 52.6065C35.2681 52.3366 35.3754 52.0777 35.5663 51.8868C35.7571 51.6959 36.016 51.5887 36.286 51.5887H38.3217V43.4458H35.2681C35.0465 43.4459 34.8309 43.3736 34.654 43.24C34.4772 43.1063 34.3488 42.9186 34.2884 42.7053ZM50.536 50.5708C50.536 50.8408 50.6432 51.0997 50.8341 51.2905C51.025 51.4814 51.2839 51.5887 51.5539 51.5887C51.8238 51.5887 52.0827 51.4814 52.2736 51.2905C52.4645 51.0997 52.5717 50.8408 52.5717 50.5708V44.4637C52.5717 44.1937 52.4645 43.9348 52.2736 43.7439C52.0827 43.5531 51.8238 43.4458 51.5539 43.4458C51.2839 43.4458 51.025 43.5531 50.8341 43.7439C50.6432 43.9348 50.536 44.1937 50.536 44.4637V50.5708ZM44.4289 50.5708C44.4289 50.8408 44.5361 51.0997 44.727 51.2905C44.9179 51.4814 45.1768 51.5887 45.4467 51.5887C45.7167 51.5887 45.9756 51.4814 46.1664 51.2905C46.3573 51.0997 46.4646 50.8408 46.4646 50.5708V44.4637C46.4646 44.1937 46.3573 43.9348 46.1664 43.7439C45.9756 43.5531 45.7167 43.4458 45.4467 43.4458C45.1768 43.4458 44.9179 43.5531 44.727 43.7439C44.5361 43.9348 44.4289 44.1937 44.4289 44.4637V50.5708Z" fill="#2A4947"/>
<g filter="url(#filter2_d_656_3170)">
<rect x="91" y="18" width="57" height="57" rx="12" fill="#FEFEFE"/>
</g>
<path d="M131.714 36.3213H107.286C106.746 36.3213 106.228 36.5358 105.846 36.9175C105.464 37.2993 105.25 37.8171 105.25 38.357V54.6427C105.25 55.1826 105.464 55.7004 105.846 56.0822C106.228 56.464 106.746 56.6784 107.286 56.6784H131.714C132.254 56.6784 132.772 56.464 133.154 56.0822C133.536 55.7004 133.75 55.1826 133.75 54.6427V38.357C133.75 37.8171 133.536 37.2993 133.154 36.9175C132.772 36.5358 132.254 36.3213 131.714 36.3213ZM120.518 52.607H118.482C118.212 52.607 117.953 52.4998 117.762 52.3089C117.572 52.118 117.464 51.8591 117.464 51.5891C117.464 51.3192 117.572 51.0603 117.762 50.8694C117.953 50.6785 118.212 50.5713 118.482 50.5713H120.518C120.788 50.5713 121.047 50.6785 121.238 50.8694C121.428 51.0603 121.536 51.3192 121.536 51.5891C121.536 51.8591 121.428 52.118 121.238 52.3089C121.047 52.4998 120.788 52.607 120.518 52.607ZM128.661 52.607H124.589C124.319 52.607 124.06 52.4998 123.87 52.3089C123.679 52.118 123.571 51.8591 123.571 51.5891C123.571 51.3192 123.679 51.0603 123.87 50.8694C124.06 50.6785 124.319 50.5713 124.589 50.5713H128.661C128.931 50.5713 129.19 50.6785 129.38 50.8694C129.571 51.0603 129.679 51.3192 129.679 51.5891C129.679 51.8591 129.571 52.118 129.38 52.3089C129.19 52.4998 128.931 52.607 128.661 52.607ZM107.286 41.4106V38.357H131.714V41.4106H107.286Z" fill="#2A4947"/>
<g filter="url(#filter3_d_656_3170)">
<rect x="162" y="18" width="57" height="57" rx="12" fill="#FEFEFE"/>
</g>
<path d="M201.698 38.3566H181.341C181.071 38.3566 180.812 38.2493 180.621 38.0585C180.43 37.8676 180.323 37.6087 180.323 37.3387C180.323 37.0688 180.43 36.8099 180.621 36.619C180.812 36.4281 181.071 36.3209 181.341 36.3209H198.644C198.914 36.3209 199.173 36.2136 199.364 36.0227C199.555 35.8319 199.662 35.573 199.662 35.303C199.662 35.0331 199.555 34.7742 199.364 34.5833C199.173 34.3924 198.914 34.2852 198.644 34.2852H181.341C180.531 34.2852 179.754 34.6069 179.181 35.1795C178.609 35.7522 178.287 36.5289 178.287 37.3387V53.6244C178.287 54.4343 178.609 55.211 179.181 55.7836C179.754 56.3563 180.531 56.678 181.341 56.678H201.698C202.238 56.678 202.756 56.4635 203.137 56.0818C203.519 55.7 203.734 55.1822 203.734 54.6423V40.3923C203.734 39.8524 203.519 39.3346 203.137 38.9528C202.756 38.5711 202.238 38.3566 201.698 38.3566ZM197.117 48.5352C196.815 48.5352 196.52 48.4456 196.269 48.2778C196.018 48.1101 195.822 47.8716 195.707 47.5926C195.591 47.3137 195.561 47.0067 195.62 46.7105C195.679 46.4143 195.824 46.1423 196.038 45.9288C196.251 45.7152 196.523 45.5698 196.82 45.5109C197.116 45.452 197.423 45.4822 197.702 45.5978C197.981 45.7134 198.219 45.9091 198.387 46.1601C198.555 46.4112 198.644 46.7064 198.644 47.0084C198.644 47.4133 198.483 47.8016 198.197 48.088C197.911 48.3743 197.522 48.5352 197.117 48.5352Z" fill="#2A4947"/>
<defs>
<filter id="filter0_d_656_3170" x="0" y="0" width="237" height="94" filterUnits="userSpaceOnUse" color-interpolation-filters="sRGB">
<feFlood flood-opacity="0" result="BackgroundImageFix"/>
<feColorMatrix in="SourceAlpha" type="matrix" values="0 0 0 0 0 0 0 0 0 0 0 0 0 0 0 0 0 0 127 0" result="hardAlpha"/>
<feOffset dx="-1" dy="1"/>
<feGaussianBlur stdDeviation="1"/>
<feComposite in2="hardAlpha" operator="out"/>
<feColorMatrix type="matrix" values="0 0 0 0 0 0 0 0 0 0 0 0 0 0 0 0 0 0 0.15 0"/>
<feBlend mode="normal" in2="BackgroundImageFix" result="effect1_dropShadow_656_3170"/>
<feBlend mode="normal" in="SourceGraphic" in2="effect1_dropShadow_656_3170" result="shape"/>
</filter>
<filter id="filter1_d_656_3170" x="17" y="17" width="61" height="61" filterUnits="userSpaceOnUse" color-interpolation-filters="sRGB">
<feFlood flood-opacity="0" result="BackgroundImageFix"/>
<feColorMatrix in="SourceAlpha" type="matrix" values="0 0 0 0 0 0 0 0 0 0 0 0 0 0 0 0 0 0 127 0" result="hardAlpha"/>
<feOffset dx="-1" dy="1"/>
<feGaussianBlur stdDeviation="1"/>
<feComposite in2="hardAlpha" operator="out"/>
<feColorMatrix type="matrix" values="0 0 0 0 0 0 0 0 0 0 0 0 0 0 0 0 0 0 0.15 0"/>
<feBlend mode="normal" in2="BackgroundImageFix" result="effect1_dropShadow_656_3170"/>
<feBlend mode="normal" in="SourceGraphic" in2="effect1_dropShadow_656_3170" result="shape"/>
</filter>
<filter id="filter2_d_656_3170" x="88" y="17" width="61" height="61" filterUnits="userSpaceOnUse" color-interpolation-filters="sRGB">
<feFlood flood-opacity="0" result="BackgroundImageFix"/>
<feColorMatrix in="SourceAlpha" type="matrix" values="0 0 0 0 0 0 0 0 0 0 0 0 0 0 0 0 0 0 127 0" result="hardAlpha"/>
<feOffset dx="-1" dy="1"/>
<feGaussianBlur stdDeviation="1"/>
<feComposite in2="hardAlpha" operator="out"/>
<feColorMatrix type="matrix" values="0 0 0 0 0 0 0 0 0 0 0 0 0 0 0 0 0 0 0.15 0"/>
<feBlend mode="normal" in2="BackgroundImageFix" result="effect1_dropShadow_656_3170"/>
<feBlend mode="normal" in="SourceGraphic" in2="effect1_dropShadow_656_3170" result="shape"/>
</filter>
<filter id="filter3_d_656_3170" x="159" y="17" width="61" height="61" filterUnits="userSpaceOnUse" color-interpolation-filters="sRGB">
<feFlood flood-opacity="0" result="BackgroundImageFix"/>
<feColorMatrix in="SourceAlpha" type="matrix" values="0 0 0 0 0 0 0 0 0 0 0 0 0 0 0 0 0 0 127 0" result="hardAlpha"/>
<feOffset dx="-1" dy="1"/>
<feGaussianBlur stdDeviation="1"/>
<feComposite in2="hardAlpha" operator="out"/>
<feColorMatrix type="matrix" values="0 0 0 0 0 0 0 0 0 0 0 0 0 0 0 0 0 0 0.15 0"/>
<feBlend mode="normal" in2="BackgroundImageFix" result="effect1_dropShadow_656_3170"/>
<feBlend mode="normal" in="SourceGraphic" in2="effect1_dropShadow_656_3170" result="shape"/>
</filter>
</defs>
</svg>
