<svg width="270" height="203" viewBox="0 0 270 203" fill="none" xmlns="http://www.w3.org/2000/svg">
<path d="M158.897 62.2812H159.425V62.4732L152.465 73.4812H151.937V73.2892L158.897 62.2812ZM157.873 73.5612C157.233 73.5612 156.721 73.3585 156.337 72.9532C155.953 72.5372 155.761 72.0358 155.761 71.4492C155.761 70.8625 155.953 70.3612 156.337 69.9452C156.721 69.5292 157.233 69.3212 157.873 69.3212C158.289 69.3212 158.657 69.4172 158.977 69.6092C159.297 69.8012 159.542 70.0572 159.713 70.3772C159.894 70.6972 159.985 71.0545 159.985 71.4492C159.985 72.0358 159.787 72.5372 159.393 72.9532C159.009 73.3585 158.502 73.5612 157.873 73.5612ZM157.873 72.6172C158.214 72.6172 158.491 72.5052 158.705 72.2812C158.929 72.0572 159.041 71.7798 159.041 71.4492C159.041 71.1185 158.929 70.8412 158.705 70.6172C158.491 70.3825 158.214 70.2652 157.873 70.2652C157.521 70.2652 157.238 70.3825 157.025 70.6172C156.811 70.8412 156.705 71.1185 156.705 71.4492C156.705 71.7798 156.811 72.0572 157.025 72.2812C157.238 72.5052 157.521 72.6172 157.873 72.6172ZM153.505 66.4412C152.865 66.4412 152.353 66.2385 151.969 65.8332C151.585 65.4172 151.393 64.9158 151.393 64.3292C151.393 63.7425 151.585 63.2412 151.969 62.8252C152.353 62.4092 152.865 62.2012 153.505 62.2012C153.921 62.2012 154.289 62.2972 154.609 62.4892C154.929 62.6812 155.174 62.9372 155.345 63.2572C155.526 63.5772 155.617 63.9345 155.617 64.3292C155.617 64.9158 155.419 65.4172 155.025 65.8332C154.641 66.2385 154.134 66.4412 153.505 66.4412ZM153.505 65.4972C153.846 65.4972 154.123 65.3852 154.337 65.1612C154.561 64.9372 154.673 64.6598 154.673 64.3292C154.673 63.9985 154.561 63.7212 154.337 63.4972C154.123 63.2625 153.846 63.1452 153.505 63.1452C153.153 63.1452 152.87 63.2625 152.657 63.4972C152.443 63.7212 152.337 63.9985 152.337 64.3292C152.337 64.6598 152.443 64.9372 152.657 65.1612C152.87 65.3852 153.153 65.4972 153.505 65.4972Z" fill="#152320"/>
<path d="M150.307 54.96C150.307 56.9067 149.987 58.84 149.347 60.76C148.734 62.68 147.894 64.5867 146.827 66.48C146.374 67.28 145.867 68.1333 145.307 69.04C144.747 69.92 144.174 70.7467 143.587 71.52C143.027 72.2933 142.507 72.9467 142.027 73.48H135.227V73C135.76 72.3067 136.36 71.5067 137.027 70.6C137.72 69.6933 138.387 68.7733 139.027 67.84C139.667 66.9067 140.227 66.0533 140.707 65.28C141.214 64.48 141.56 63.88 141.747 63.48V63.04C141.48 63.1733 141.107 63.32 140.627 63.48C140.147 63.64 139.387 63.72 138.347 63.72C136.96 63.72 135.667 63.3733 134.467 62.68C133.294 61.96 132.347 60.9467 131.627 59.64C130.907 58.3067 130.547 56.7467 130.547 54.96C130.547 52.7467 130.987 50.9067 131.867 49.44C132.774 47.9733 133.974 46.8667 135.467 46.12C136.96 45.3733 138.614 45 140.427 45C142.24 45 143.894 45.3733 145.387 46.12C146.88 46.8667 148.067 47.9733 148.947 49.44C149.854 50.9067 150.307 52.7467 150.307 54.96ZM143.827 55.2C143.827 54.5333 143.694 53.92 143.427 53.36C143.187 52.8 142.814 52.3467 142.307 52C141.8 51.6533 141.174 51.48 140.427 51.48C139.707 51.48 139.094 51.64 138.587 51.96C138.08 52.2533 137.694 52.68 137.427 53.24C137.16 53.8 137.027 54.4533 137.027 55.2C137.027 55.8667 137.16 56.48 137.427 57.04C137.694 57.6 138.08 58.0533 138.587 58.4C139.094 58.7467 139.707 58.92 140.427 58.92C141.174 58.92 141.8 58.7333 142.307 58.36C142.814 57.96 143.187 57.48 143.427 56.92C143.694 56.3333 143.827 55.76 143.827 55.2Z" fill="#152320"/>
<path d="M129.174 54.96C129.174 56.9067 128.854 58.84 128.214 60.76C127.601 62.68 126.761 64.5867 125.694 66.48C125.241 67.28 124.734 68.1333 124.174 69.04C123.614 69.92 123.041 70.7467 122.454 71.52C121.894 72.2933 121.374 72.9467 120.894 73.48H114.094V73C114.627 72.3067 115.227 71.5067 115.894 70.6C116.587 69.6933 117.254 68.7733 117.894 67.84C118.534 66.9067 119.094 66.0533 119.574 65.28C120.081 64.48 120.427 63.88 120.614 63.48V63.04C120.347 63.1733 119.974 63.32 119.494 63.48C119.014 63.64 118.254 63.72 117.214 63.72C115.827 63.72 114.534 63.3733 113.334 62.68C112.161 61.96 111.214 60.9467 110.494 59.64C109.774 58.3067 109.414 56.7467 109.414 54.96C109.414 52.7467 109.854 50.9067 110.734 49.44C111.641 47.9733 112.841 46.8667 114.334 46.12C115.827 45.3733 117.481 45 119.294 45C121.107 45 122.761 45.3733 124.254 46.12C125.747 46.8667 126.934 47.9733 127.814 49.44C128.721 50.9067 129.174 52.7467 129.174 54.96ZM122.694 55.2C122.694 54.5333 122.561 53.92 122.294 53.36C122.054 52.8 121.681 52.3467 121.174 52C120.667 51.6533 120.041 51.48 119.294 51.48C118.574 51.48 117.961 51.64 117.454 51.96C116.947 52.2533 116.561 52.68 116.294 53.24C116.027 53.8 115.894 54.4533 115.894 55.2C115.894 55.8667 116.027 56.48 116.294 57.04C116.561 57.6 116.947 58.0533 117.454 58.4C117.961 58.7467 118.574 58.92 119.294 58.92C120.041 58.92 120.667 58.7333 121.174 58.36C121.681 57.96 122.054 57.48 122.294 56.92C122.561 56.3333 122.694 55.76 122.694 55.2Z" fill="#152320"/>
<path d="M121.999 89.5085V83.1005H123.091V89.5085H121.999ZM118.375 89.5085V83.1005H119.467V89.5085H118.375ZM123.091 89.4965C123.091 89.9365 122.991 90.3285 122.791 90.6725C122.591 91.0085 122.311 91.2725 121.951 91.4645C121.599 91.6485 121.191 91.7405 120.727 91.7405V90.7925C121.127 90.7925 121.439 90.6805 121.663 90.4565C121.887 90.2245 121.999 89.9045 121.999 89.4965H123.091ZM118.375 89.4965H119.467C119.467 89.9045 119.579 90.2245 119.803 90.4565C120.035 90.6805 120.351 90.7925 120.751 90.7925V91.7405C120.287 91.7405 119.875 91.6485 119.515 91.4645C119.155 91.2725 118.875 91.0085 118.675 90.6725C118.475 90.3285 118.375 89.9365 118.375 89.4965ZM124.767 91.5485H125.859V93.9605H124.767V91.5485ZM125.859 85.5005V91.5605H124.767V85.5005H125.859ZM129.231 87.4325V89.6285H128.139V87.4325H129.231ZM128.139 89.6285H129.231C129.231 90.0285 129.147 90.3885 128.979 90.7085C128.811 91.0285 128.579 91.2805 128.283 91.4645C127.995 91.6485 127.667 91.7405 127.299 91.7405L127.023 90.7685C127.351 90.7685 127.619 90.6645 127.827 90.4565C128.035 90.2405 128.139 89.9645 128.139 89.6285ZM125.379 89.5925H125.859C125.859 89.9445 125.967 90.2285 126.183 90.4445C126.399 90.6605 126.679 90.7685 127.023 90.7685L127.299 91.7405C126.931 91.7405 126.603 91.6485 126.315 91.4645C126.027 91.2725 125.799 91.0165 125.631 90.6965C125.463 90.3685 125.379 90.0005 125.379 89.5925ZM128.139 87.4325C128.139 87.0965 128.035 86.8245 127.827 86.6165C127.619 86.4005 127.351 86.2925 127.023 86.2925L127.299 85.3205C127.667 85.3205 127.995 85.4125 128.283 85.5965C128.579 85.7805 128.811 86.0325 128.979 86.3525C129.147 86.6725 129.231 87.0325 129.231 87.4325H128.139ZM125.379 87.4565C125.379 87.0485 125.463 86.6845 125.631 86.3645C125.799 86.0365 126.027 85.7805 126.315 85.5965C126.603 85.4125 126.931 85.3205 127.299 85.3205L127.023 86.2925C126.679 86.2925 126.399 86.4005 126.183 86.6165C125.967 86.8325 125.859 87.1125 125.859 87.4565H125.379ZM131.087 89.7245V83.0885L132.179 83.1005V89.7245H131.087ZM130.391 86.4005V85.5005H133.691V86.4005H130.391ZM131.087 89.7125H132.179C132.179 89.9445 132.211 90.1405 132.275 90.3005C132.339 90.4605 132.431 90.5845 132.551 90.6725C132.671 90.7525 132.815 90.7925 132.983 90.7925L132.887 91.7405C132.327 91.7405 131.887 91.5645 131.567 91.2125C131.247 90.8525 131.087 90.3525 131.087 89.7125ZM133.547 90.5885L133.979 91.3685C133.819 91.4885 133.643 91.5805 133.451 91.6445C133.267 91.7085 133.079 91.7405 132.887 91.7405L132.983 90.7925C133.087 90.7925 133.183 90.7765 133.271 90.7445C133.367 90.7045 133.459 90.6525 133.547 90.5885ZM135.235 91.5605V85.5005H136.327V91.5605H135.235ZM135.775 84.6965C135.575 84.6965 135.407 84.6285 135.271 84.4925C135.135 84.3565 135.067 84.1885 135.067 83.9885C135.067 83.7885 135.135 83.6205 135.271 83.4845C135.407 83.3405 135.575 83.2685 135.775 83.2685C135.975 83.2685 136.143 83.3405 136.279 83.4845C136.423 83.6205 136.495 83.7885 136.495 83.9885C136.495 84.1885 136.423 84.3565 136.279 84.4925C136.143 84.6285 135.975 84.6965 135.775 84.6965ZM138.132 91.5605V85.5005H139.224V91.5605H138.132ZM141.264 91.5605V87.4325H142.356V91.5605H141.264ZM138.732 87.4565C138.732 87.0485 138.808 86.6845 138.96 86.3645C139.12 86.0365 139.336 85.7805 139.608 85.5965C139.88 85.4125 140.184 85.3205 140.52 85.3205L140.244 86.2925C139.956 86.2925 139.712 86.4005 139.512 86.6165C139.32 86.8325 139.224 87.1125 139.224 87.4565H138.732ZM141.264 87.4325C141.264 87.0965 141.168 86.8245 140.976 86.6165C140.784 86.4005 140.54 86.2925 140.244 86.2925L140.52 85.3205C140.872 85.3205 141.184 85.4125 141.456 85.5965C141.736 85.7805 141.956 86.0325 142.116 86.3525C142.276 86.6645 142.356 87.0245 142.356 87.4325H141.264ZM144.384 91.5605V87.4325H145.476V91.5605H144.384ZM141.864 87.4565C141.864 87.0485 141.94 86.6845 142.092 86.3645C142.252 86.0365 142.464 85.7805 142.728 85.5965C143 85.4125 143.304 85.3205 143.64 85.3205L143.364 86.2925C143.076 86.2925 142.836 86.4005 142.644 86.6165C142.452 86.8325 142.356 87.1125 142.356 87.4565H141.864ZM144.384 87.4325C144.384 87.0965 144.288 86.8245 144.096 86.6165C143.912 86.4005 143.668 86.2925 143.364 86.2925L143.64 85.3205C143.992 85.3205 144.304 85.4125 144.576 85.5965C144.856 85.7805 145.076 86.0325 145.236 86.3525C145.396 86.6645 145.476 87.0245 145.476 87.4325H144.384ZM146.986 88.8605V88.0805H151.078V88.8605H146.986ZM148.846 91.7525V90.8045H148.906V91.7525H148.846ZM146.638 89.4125V87.6485H147.73V89.4125H146.638ZM149.986 88.0805V87.4565H151.078V88.0805H149.986ZM151.078 87.4565H149.986C149.986 87.1045 149.878 86.8165 149.662 86.5925C149.454 86.3685 149.182 86.2565 148.846 86.2565V85.3205C149.278 85.3205 149.658 85.4125 149.986 85.5965C150.322 85.7805 150.586 86.0365 150.778 86.3645C150.978 86.6845 151.078 87.0485 151.078 87.4565ZM150.034 89.7605L151.054 89.9645C151.006 90.3085 150.882 90.6165 150.682 90.8885C150.482 91.1605 150.23 91.3725 149.926 91.5245C149.622 91.6765 149.282 91.7525 148.906 91.7525V90.8045C149.194 90.8045 149.442 90.7205 149.65 90.5525C149.866 90.3765 149.994 90.1125 150.034 89.7605ZM146.638 87.6605C146.638 87.2045 146.734 86.8045 146.926 86.4605C147.126 86.1085 147.39 85.8325 147.718 85.6325C148.054 85.4245 148.434 85.3205 148.858 85.3205V86.2565C148.506 86.2565 148.23 86.3805 148.03 86.6285C147.83 86.8685 147.73 87.2125 147.73 87.6605H146.638ZM146.638 89.4125H147.73C147.73 89.8525 147.83 90.1965 148.03 90.4445C148.23 90.6845 148.506 90.8045 148.858 90.8045V91.7525C148.434 91.7525 148.054 91.6525 147.718 91.4525C147.39 91.2445 147.126 90.9645 146.926 90.6125C146.734 90.2605 146.638 89.8605 146.638 89.4125Z" fill="#1A2B27"/>
<circle cx="134.5" cy="70" r="65" stroke="#1A2B27" stroke-width="10"/>
<path d="M200.399 46.3911C197.139 37.2931 192.031 28.9687 185.396 21.9419L178.129 28.8037C183.817 34.8272 188.195 41.9631 190.989 49.762L200.399 46.3911Z" fill="#CEEE6A"/>
<g filter="url(#filter0_d_683_1351)">
<rect x="189" y="62" width="42" height="42" rx="21" fill="#FEFEFE" shape-rendering="crispEdges"/>
<path d="M220.5 76.25V82.25C220.501 82.3984 220.457 82.5435 220.374 82.667C220.292 82.7904 220.175 82.8867 220.038 82.9435C219.9 83.0003 219.75 83.0151 219.604 82.9861C219.458 82.9572 219.325 82.8856 219.22 82.7806L216.75 80.3103L211.281 85.7806C211.211 85.8504 211.129 85.9057 211.038 85.9434C210.947 85.9812 210.849 86.0006 210.75 86.0006C210.652 86.0006 210.554 85.9812 210.463 85.9434C210.372 85.9057 210.289 85.8504 210.22 85.7806L207 82.5603L200.781 88.7806C200.64 88.9214 200.449 89.0004 200.25 89.0004C200.051 89.0004 199.861 88.9214 199.72 88.7806C199.579 88.6399 199.5 88.449 199.5 88.25C199.5 88.051 199.579 87.8601 199.72 87.7194L206.47 80.9694C206.539 80.8996 206.622 80.8443 206.713 80.8066C206.804 80.7688 206.902 80.7494 207 80.7494C207.099 80.7494 207.197 80.7688 207.288 80.8066C207.379 80.8443 207.461 80.8996 207.531 80.9694L210.75 84.1897L215.69 79.25L213.22 76.7806C213.115 76.6757 213.043 76.542 213.014 76.3965C212.985 76.2509 213 76.1 213.057 75.9629C213.114 75.8258 213.21 75.7086 213.333 75.6262C213.457 75.5438 213.602 75.4999 213.75 75.5H219.75C219.949 75.5 220.14 75.579 220.281 75.7197C220.421 75.8603 220.5 76.0511 220.5 76.25Z" fill="#2A4947"/>
</g>
<g filter="url(#filter1_d_683_1351)">
<rect x="9" y="168" width="65" height="22" rx="11" fill="white"/>
<path d="M32.2073 176.681L24.1823 184.706C23.9948 184.893 23.7406 184.999 23.4755 184.999C23.2104 184.999 22.9561 184.893 22.7686 184.706L18.2923 180.206C18.1051 180.019 18 179.764 18 179.499C18 179.235 18.1051 178.98 18.2923 178.793L19.5423 177.543C19.7298 177.356 19.9835 177.251 20.248 177.251C20.5125 177.251 20.7662 177.356 20.9536 177.543L23.5005 180.013L29.548 174.04C29.7354 173.853 29.9893 173.748 30.2539 173.748C30.5186 173.748 30.7724 173.853 30.9598 174.04L32.2067 175.261C32.3005 175.354 32.3749 175.465 32.4258 175.586C32.4766 175.708 32.5028 175.839 32.5028 175.971C32.5029 176.103 32.4768 176.234 32.4261 176.356C32.3754 176.477 32.301 176.588 32.2073 176.681Z" fill="#2A4947"/>
<path d="M41.64 178.744V177.875H43.884V178.744H41.64ZM42.883 180.119V177.908H43.884V180.119H42.883ZM39.55 180.119V176.126H40.551V180.119H39.55ZM39.55 176.126C39.55 175.723 39.6417 175.367 39.825 175.059C40.0083 174.744 40.265 174.502 40.595 174.333C40.925 174.157 41.3027 174.069 41.728 174.069V174.938C41.3613 174.938 41.0717 175.041 40.859 175.246C40.6537 175.451 40.551 175.745 40.551 176.126H39.55ZM39.55 180.108H40.551C40.551 180.489 40.6537 180.786 40.859 180.999C41.0717 181.204 41.3613 181.307 41.728 181.307V182.176C41.3027 182.176 40.925 182.088 40.595 181.912C40.265 181.736 40.0083 181.494 39.825 181.186C39.6417 180.878 39.55 180.519 39.55 180.108ZM43.037 176.412C42.993 175.95 42.8537 175.591 42.619 175.334C42.3917 175.07 42.091 174.938 41.717 174.938V174.069C42.3403 174.069 42.8463 174.26 43.235 174.641C43.631 175.022 43.8693 175.55 43.95 176.225L43.037 176.412ZM43.884 180.108C43.884 180.519 43.7923 180.878 43.609 181.186C43.4257 181.494 43.169 181.736 42.839 181.912C42.5163 182.088 42.1423 182.176 41.717 182.176V181.307C42.0837 181.307 42.3697 181.204 42.575 180.999C42.7803 180.786 42.883 180.489 42.883 180.108H43.884ZM45.5437 182V174.08H46.5447V182H45.5437ZM50.9834 180.031V178.414H51.9844V180.031H50.9834ZM47.8924 180.031V178.414H48.8934V180.031H47.8924ZM49.9054 177.149V176.28H49.9714V177.149H49.9054ZM49.9054 182.165V181.296H49.9714V182.165H49.9054ZM47.8924 178.425C47.8924 178.014 47.9804 177.648 48.1564 177.325C48.3397 177.002 48.5817 176.749 48.8824 176.566C49.1904 176.375 49.5387 176.28 49.9274 176.28V177.149C49.6047 177.149 49.3517 177.259 49.1684 177.479C48.985 177.699 48.8934 178.014 48.8934 178.425H47.8924ZM51.9844 178.425H50.9834C50.9834 178.014 50.8917 177.699 50.7084 177.479C50.5324 177.259 50.2794 177.149 49.9494 177.149V176.28C50.338 176.28 50.6827 176.375 50.9834 176.566C51.2914 176.749 51.5334 177.002 51.7094 177.325C51.8927 177.648 51.9844 178.014 51.9844 178.425ZM47.8924 180.02H48.8934C48.8934 180.423 48.985 180.739 49.1684 180.966C49.3517 181.186 49.6047 181.296 49.9274 181.296V182.165C49.5387 182.165 49.1904 182.073 48.8824 181.89C48.5817 181.699 48.3397 181.443 48.1564 181.12C47.9804 180.797 47.8924 180.431 47.8924 180.02ZM51.9844 180.02C51.9844 180.431 51.8927 180.797 51.7094 181.12C51.5334 181.443 51.2914 181.699 50.9834 181.89C50.6827 182.073 50.338 182.165 49.9494 182.165V181.296C50.2794 181.296 50.5324 181.186 50.7084 180.966C50.8917 180.739 50.9834 180.423 50.9834 180.02H51.9844ZM53.2214 176.456V174.245H54.2224V176.456H53.2214ZM54.2224 182H53.2214V176.445H54.2224V182ZM57.3134 180.229H56.3124V178.216H57.3134V180.229ZM56.3124 178.216C56.3124 177.908 56.217 177.659 56.0264 177.468C55.8357 177.27 55.59 177.171 55.2894 177.171L55.5424 176.28C55.8797 176.28 56.1804 176.364 56.4444 176.533C56.7157 176.702 56.9284 176.933 57.0824 177.226C57.2364 177.519 57.3134 177.849 57.3134 178.216H56.3124ZM53.7824 178.238C53.7824 177.864 53.8594 177.53 54.0134 177.237C54.1674 176.936 54.3764 176.702 54.6404 176.533C54.9044 176.364 55.205 176.28 55.5424 176.28L55.2894 177.171C54.974 177.171 54.7174 177.27 54.5194 177.468C54.3214 177.666 54.2224 177.923 54.2224 178.238H53.7824ZM56.3124 180.229H57.3134C57.3134 180.596 57.2364 180.926 57.0824 181.219C56.9284 181.512 56.7157 181.743 56.4444 181.912C56.1804 182.081 55.8797 182.165 55.5424 182.165L55.2894 181.274C55.59 181.274 55.8357 181.179 56.0264 180.988C56.217 180.79 56.3124 180.537 56.3124 180.229ZM53.7824 180.196H54.2224C54.2224 180.519 54.3214 180.779 54.5194 180.977C54.7174 181.175 54.974 181.274 55.2894 181.274L55.5424 182.165C55.205 182.165 54.9044 182.081 54.6404 181.912C54.3764 181.736 54.1674 181.501 54.0134 181.208C53.8594 180.907 53.7824 180.57 53.7824 180.196ZM61.6213 182V178.216H62.6223V182H61.6213ZM60.2793 182.165L60.3563 181.34C60.6203 181.34 60.844 181.274 61.0273 181.142C61.218 181.01 61.3647 180.816 61.4673 180.559C61.57 180.302 61.6213 179.998 61.6213 179.646L62.1163 179.624C62.1163 180.123 62.0357 180.563 61.8743 180.944C61.713 181.325 61.493 181.626 61.2143 181.846C60.943 182.059 60.6313 182.165 60.2793 182.165ZM60.2793 182.165C59.9493 182.165 59.6487 182.088 59.3773 181.934C59.106 181.78 58.8897 181.571 58.7283 181.307C58.567 181.036 58.4863 180.735 58.4863 180.405L59.4323 180.372C59.4323 180.651 59.524 180.882 59.7073 181.065C59.898 181.248 60.1143 181.34 60.3563 181.34L60.2793 182.165ZM58.4863 180.405C58.4863 180.06 58.5707 179.76 58.7393 179.503C58.9153 179.239 59.15 179.03 59.4433 178.876C59.7367 178.722 60.0703 178.645 60.4443 178.645L60.4993 179.415C60.1913 179.415 59.9347 179.507 59.7293 179.69C59.5313 179.866 59.4323 180.093 59.4323 180.372L58.4863 180.405ZM60.4993 179.415L60.4443 178.645H62.1383V179.415H60.4993ZM61.6213 179.646V178.227H62.1163V179.624L61.6213 179.646ZM62.6223 178.238H61.6213C61.6213 177.915 61.5223 177.651 61.3243 177.446C61.1337 177.241 60.8843 177.138 60.5763 177.138V176.28C60.9723 176.28 61.3207 176.364 61.6213 176.533C61.9293 176.702 62.1713 176.936 62.3473 177.237C62.5307 177.53 62.6223 177.864 62.6223 178.238ZM59.5423 178.106L58.6183 177.919C58.6623 177.589 58.7723 177.303 58.9483 177.061C59.1317 176.819 59.3627 176.628 59.6413 176.489C59.9273 176.35 60.2427 176.28 60.5873 176.28V177.138C60.316 177.138 60.0813 177.219 59.8833 177.38C59.6927 177.534 59.579 177.776 59.5423 178.106ZM64.0731 182V174.08H65.0741V182H64.0731Z" fill="#747888"/>
<rect x="94" y="168" width="72" height="22" rx="11" fill="white"/>
<path d="M117.207 176.681L109.182 184.706C108.995 184.893 108.741 184.999 108.475 184.999C108.21 184.999 107.956 184.893 107.769 184.706L103.292 180.206C103.105 180.019 103 179.764 103 179.499C103 179.235 103.105 178.98 103.292 178.793L104.542 177.543C104.73 177.356 104.983 177.251 105.248 177.251C105.512 177.251 105.766 177.356 105.954 177.543L108.5 180.013L114.548 174.04C114.735 173.853 114.989 173.748 115.254 173.748C115.519 173.748 115.772 173.853 115.96 174.04L117.207 175.261C117.3 175.354 117.375 175.465 117.426 175.586C117.477 175.708 117.503 175.839 117.503 175.971C117.503 176.103 117.477 176.234 117.426 176.356C117.375 176.477 117.301 176.588 117.207 176.681Z" fill="#2A4947"/>
<path d="M125.386 178.579V177.688H127.608V178.579H125.386ZM124.66 174.245H125.661V182H124.66V174.245ZM125.331 174.245H128.158V175.114H125.331V174.245ZM129.373 182V174.08H130.374V182H129.373ZM132.04 179.525V178.81H135.791V179.525H132.04ZM133.745 182.176V181.307H133.8V182.176H133.745ZM131.721 180.031V178.414H132.722V180.031H131.721ZM134.79 178.81V178.238H135.791V178.81H134.79ZM135.791 178.238H134.79C134.79 177.915 134.691 177.651 134.493 177.446C134.303 177.241 134.053 177.138 133.745 177.138V176.28C134.141 176.28 134.49 176.364 134.79 176.533C135.098 176.702 135.34 176.936 135.516 177.237C135.7 177.53 135.791 177.864 135.791 178.238ZM134.834 180.35L135.769 180.537C135.725 180.852 135.612 181.135 135.428 181.384C135.245 181.633 135.014 181.828 134.735 181.967C134.457 182.106 134.145 182.176 133.8 182.176V181.307C134.064 181.307 134.292 181.23 134.482 181.076C134.68 180.915 134.798 180.673 134.834 180.35ZM131.721 178.425C131.721 178.007 131.809 177.64 131.985 177.325C132.169 177.002 132.411 176.749 132.711 176.566C133.019 176.375 133.368 176.28 133.756 176.28V177.138C133.434 177.138 133.181 177.252 132.997 177.479C132.814 177.699 132.722 178.014 132.722 178.425H131.721ZM131.721 180.031H132.722C132.722 180.434 132.814 180.75 132.997 180.977C133.181 181.197 133.434 181.307 133.756 181.307V182.176C133.368 182.176 133.019 182.084 132.711 181.901C132.411 181.71 132.169 181.454 131.985 181.131C131.809 180.808 131.721 180.442 131.721 180.031ZM139.717 182L136.516 176.445H137.583L140.784 182H139.717ZM136.516 182L138.122 179.217H139.178L137.583 182H136.516ZM138.122 179.217L139.717 176.445H140.784L139.178 179.217H138.122ZM142.182 182V176.445H143.183V182H142.182ZM142.677 175.708C142.494 175.708 142.34 175.646 142.215 175.521C142.091 175.396 142.028 175.242 142.028 175.059C142.028 174.876 142.091 174.722 142.215 174.597C142.34 174.465 142.494 174.399 142.677 174.399C142.861 174.399 143.015 174.465 143.139 174.597C143.271 174.722 143.337 174.876 143.337 175.059C143.337 175.242 143.271 175.396 143.139 175.521C143.015 175.646 142.861 175.708 142.677 175.708ZM144.838 176.456V174.245H145.839V176.456H144.838ZM145.839 182H144.838V176.445H145.839V182ZM148.93 180.229H147.929V178.216H148.93V180.229ZM147.929 178.216C147.929 177.908 147.834 177.659 147.643 177.468C147.452 177.27 147.207 177.171 146.906 177.171L147.159 176.28C147.496 176.28 147.797 176.364 148.061 176.533C148.332 176.702 148.545 176.933 148.699 177.226C148.853 177.519 148.93 177.849 148.93 178.216H147.929ZM145.399 178.238C145.399 177.864 145.476 177.53 145.63 177.237C145.784 176.936 145.993 176.702 146.257 176.533C146.521 176.364 146.822 176.28 147.159 176.28L146.906 177.171C146.591 177.171 146.334 177.27 146.136 177.468C145.938 177.666 145.839 177.923 145.839 178.238H145.399ZM147.929 180.229H148.93C148.93 180.596 148.853 180.926 148.699 181.219C148.545 181.512 148.332 181.743 148.061 181.912C147.797 182.081 147.496 182.165 147.159 182.165L146.906 181.274C147.207 181.274 147.452 181.179 147.643 180.988C147.834 180.79 147.929 180.537 147.929 180.229ZM145.399 180.196H145.839C145.839 180.519 145.938 180.779 146.136 180.977C146.334 181.175 146.591 181.274 146.906 181.274L147.159 182.165C146.822 182.165 146.521 182.081 146.257 181.912C145.993 181.736 145.784 181.501 145.63 181.208C145.476 180.907 145.399 180.57 145.399 180.196ZM150.378 182V174.08H151.379V182H150.378ZM153.046 179.525V178.81H156.797V179.525H153.046ZM154.751 182.176V181.307H154.806V182.176H154.751ZM152.727 180.031V178.414H153.728V180.031H152.727ZM155.796 178.81V178.238H156.797V178.81H155.796ZM156.797 178.238H155.796C155.796 177.915 155.697 177.651 155.499 177.446C155.308 177.241 155.059 177.138 154.751 177.138V176.28C155.147 176.28 155.495 176.364 155.796 176.533C156.104 176.702 156.346 176.936 156.522 177.237C156.705 177.53 156.797 177.864 156.797 178.238ZM155.84 180.35L156.775 180.537C156.731 180.852 156.617 181.135 156.434 181.384C156.25 181.633 156.019 181.828 155.741 181.967C155.462 182.106 155.15 182.176 154.806 182.176V181.307C155.07 181.307 155.297 181.23 155.488 181.076C155.686 180.915 155.803 180.673 155.84 180.35ZM152.727 178.425C152.727 178.007 152.815 177.64 152.991 177.325C153.174 177.002 153.416 176.749 153.717 176.566C154.025 176.375 154.373 176.28 154.762 176.28V177.138C154.439 177.138 154.186 177.252 154.003 177.479C153.819 177.699 153.728 178.014 153.728 178.425H152.727ZM152.727 180.031H153.728C153.728 180.434 153.819 180.75 154.003 180.977C154.186 181.197 154.439 181.307 154.762 181.307V182.176C154.373 182.176 154.025 182.084 153.717 181.901C153.416 181.71 153.174 181.454 152.991 181.131C152.815 180.808 152.727 180.442 152.727 180.031Z" fill="#747888"/>
<rect x="186" y="168" width="75" height="22" rx="11" fill="white"/>
<path d="M209.207 176.681L201.182 184.706C200.995 184.893 200.741 184.999 200.475 184.999C200.21 184.999 199.956 184.893 199.769 184.706L195.292 180.206C195.105 180.019 195 179.764 195 179.499C195 179.235 195.105 178.98 195.292 178.793L196.542 177.543C196.73 177.356 196.983 177.251 197.248 177.251C197.512 177.251 197.766 177.356 197.954 177.543L200.5 180.013L206.548 174.04C206.735 173.853 206.989 173.748 207.254 173.748C207.519 173.748 207.772 173.853 207.96 174.04L209.207 175.261C209.3 175.354 209.375 175.465 209.426 175.586C209.477 175.708 209.503 175.839 209.503 175.971C209.503 176.103 209.477 176.234 209.426 176.356C209.375 176.477 209.301 176.588 209.207 176.681Z" fill="#2A4947"/>
<path d="M219.795 180.262C219.795 179.991 219.718 179.752 219.564 179.547C219.41 179.334 219.212 179.136 218.97 178.953C218.728 178.77 218.468 178.583 218.189 178.392C217.918 178.201 217.661 177.992 217.419 177.765C217.177 177.538 216.979 177.281 216.825 176.995C216.671 176.702 216.594 176.364 216.594 175.983H217.595C217.595 176.247 217.672 176.485 217.826 176.698C217.98 176.903 218.178 177.101 218.42 177.292C218.662 177.475 218.919 177.662 219.19 177.853C219.469 178.044 219.729 178.253 219.971 178.48C220.213 178.7 220.411 178.957 220.565 179.25C220.719 179.536 220.796 179.873 220.796 180.262H219.795ZM216.594 176.005C216.594 175.602 216.686 175.257 216.869 174.971C217.052 174.685 217.309 174.465 217.639 174.311C217.969 174.157 218.347 174.08 218.772 174.08V174.938C218.405 174.938 218.116 175.033 217.903 175.224C217.698 175.415 217.595 175.675 217.595 176.005H216.594ZM220.796 180.24C220.796 180.636 220.704 180.981 220.521 181.274C220.338 181.56 220.081 181.78 219.751 181.934C219.428 182.088 219.051 182.165 218.618 182.165V181.296C218.985 181.296 219.271 181.204 219.476 181.021C219.689 180.83 219.795 180.57 219.795 180.24H220.796ZM219.806 175.906C219.769 175.576 219.652 175.334 219.454 175.18C219.263 175.019 219.036 174.938 218.772 174.938V174.08C219.117 174.08 219.428 174.15 219.707 174.289C219.986 174.428 220.217 174.619 220.4 174.861C220.583 175.103 220.697 175.389 220.741 175.719L219.806 175.906ZM217.298 179.822C217.342 180.284 217.478 180.647 217.705 180.911C217.94 181.168 218.244 181.296 218.618 181.296V182.165C217.995 182.165 217.485 181.974 217.089 181.593C216.7 181.212 216.466 180.684 216.385 180.009L217.298 179.822ZM221.903 180.042V178.403H222.904V180.042H221.903ZM221.903 178.414C221.903 178.003 221.991 177.637 222.167 177.314C222.351 176.991 222.593 176.738 222.893 176.555C223.201 176.364 223.55 176.269 223.938 176.269V177.138C223.616 177.138 223.363 177.248 223.179 177.468C222.996 177.688 222.904 178.003 222.904 178.414H221.903ZM224.961 178.095C224.925 177.765 224.807 177.523 224.609 177.369C224.419 177.215 224.191 177.138 223.927 177.138V176.269C224.272 176.269 224.584 176.339 224.862 176.478C225.141 176.617 225.372 176.812 225.555 177.061C225.739 177.303 225.852 177.585 225.896 177.908L224.961 178.095ZM221.903 180.031H222.904C222.904 180.434 222.996 180.75 223.179 180.977C223.363 181.197 223.616 181.307 223.938 181.307V182.176C223.55 182.176 223.201 182.084 222.893 181.901C222.593 181.71 222.351 181.454 222.167 181.131C221.991 180.808 221.903 180.442 221.903 180.031ZM224.961 180.35L225.896 180.537C225.852 180.852 225.739 181.135 225.555 181.384C225.372 181.633 225.141 181.828 224.862 181.967C224.584 182.106 224.272 182.176 223.927 182.176V181.307C224.191 181.307 224.419 181.23 224.609 181.076C224.807 180.915 224.925 180.673 224.961 180.35ZM229.964 182V178.216H230.965V182H229.964ZM228.622 182.165L228.699 181.34C228.963 181.34 229.186 181.274 229.37 181.142C229.56 181.01 229.707 180.816 229.81 180.559C229.912 180.302 229.964 179.998 229.964 179.646L230.459 179.624C230.459 180.123 230.378 180.563 230.217 180.944C230.055 181.325 229.835 181.626 229.557 181.846C229.285 182.059 228.974 182.165 228.622 182.165ZM228.622 182.165C228.292 182.165 227.991 182.088 227.72 181.934C227.448 181.78 227.232 181.571 227.071 181.307C226.909 181.036 226.829 180.735 226.829 180.405L227.775 180.372C227.775 180.651 227.866 180.882 228.05 181.065C228.24 181.248 228.457 181.34 228.699 181.34L228.622 182.165ZM226.829 180.405C226.829 180.06 226.913 179.76 227.082 179.503C227.258 179.239 227.492 179.03 227.786 178.876C228.079 178.722 228.413 178.645 228.787 178.645L228.842 179.415C228.534 179.415 228.277 179.507 228.072 179.69C227.874 179.866 227.775 180.093 227.775 180.372L226.829 180.405ZM228.842 179.415L228.787 178.645H230.481V179.415H228.842ZM229.964 179.646V178.227H230.459V179.624L229.964 179.646ZM230.965 178.238H229.964C229.964 177.915 229.865 177.651 229.667 177.446C229.476 177.241 229.227 177.138 228.919 177.138V176.28C229.315 176.28 229.663 176.364 229.964 176.533C230.272 176.702 230.514 176.936 230.69 177.237C230.873 177.53 230.965 177.864 230.965 178.238ZM227.885 178.106L226.961 177.919C227.005 177.589 227.115 177.303 227.291 177.061C227.474 176.819 227.705 176.628 227.984 176.489C228.27 176.35 228.585 176.28 228.93 176.28V177.138C228.658 177.138 228.424 177.219 228.226 177.38C228.035 177.534 227.921 177.776 227.885 178.106ZM232.415 182V174.08H233.416V182H232.415ZM238.009 182V178.216H239.01V182H238.009ZM236.667 182.165L236.744 181.34C237.008 181.34 237.232 181.274 237.415 181.142C237.606 181.01 237.752 180.816 237.855 180.559C237.958 180.302 238.009 179.998 238.009 179.646L238.504 179.624C238.504 180.123 238.423 180.563 238.262 180.944C238.101 181.325 237.881 181.626 237.602 181.846C237.331 182.059 237.019 182.165 236.667 182.165ZM236.667 182.165C236.337 182.165 236.036 182.088 235.765 181.934C235.494 181.78 235.277 181.571 235.116 181.307C234.955 181.036 234.874 180.735 234.874 180.405L235.82 180.372C235.82 180.651 235.912 180.882 236.095 181.065C236.286 181.248 236.502 181.34 236.744 181.34L236.667 182.165ZM234.874 180.405C234.874 180.06 234.958 179.76 235.127 179.503C235.303 179.239 235.538 179.03 235.831 178.876C236.124 178.722 236.458 178.645 236.832 178.645L236.887 179.415C236.579 179.415 236.322 179.507 236.117 179.69C235.919 179.866 235.82 180.093 235.82 180.372L234.874 180.405ZM236.887 179.415L236.832 178.645H238.526V179.415H236.887ZM238.009 179.646V178.227H238.504V179.624L238.009 179.646ZM239.01 178.238H238.009C238.009 177.915 237.91 177.651 237.712 177.446C237.521 177.241 237.272 177.138 236.964 177.138V176.28C237.36 176.28 237.708 176.364 238.009 176.533C238.317 176.702 238.559 176.936 238.735 177.237C238.918 177.53 239.01 177.864 239.01 178.238ZM235.93 178.106L235.006 177.919C235.05 177.589 235.16 177.303 235.336 177.061C235.519 176.819 235.75 176.628 236.029 176.489C236.315 176.35 236.63 176.28 236.975 176.28V177.138C236.704 177.138 236.469 177.219 236.271 177.38C236.08 177.534 235.967 177.776 235.93 178.106ZM240.351 176.456V174.245H241.352V176.456H240.351ZM241.352 182H240.351V176.445H241.352V182ZM244.443 180.229H243.442V178.216H244.443V180.229ZM243.442 178.216C243.442 177.908 243.346 177.659 243.156 177.468C242.965 177.27 242.719 177.171 242.419 177.171L242.672 176.28C243.009 176.28 243.31 176.364 243.574 176.533C243.845 176.702 244.058 176.933 244.212 177.226C244.366 177.519 244.443 177.849 244.443 178.216H243.442ZM240.912 178.238C240.912 177.864 240.989 177.53 241.143 177.237C241.297 176.936 241.506 176.702 241.77 176.533C242.034 176.364 242.334 176.28 242.672 176.28L242.419 177.171C242.103 177.171 241.847 177.27 241.649 177.468C241.451 177.666 241.352 177.923 241.352 178.238H240.912ZM243.442 180.229H244.443C244.443 180.596 244.366 180.926 244.212 181.219C244.058 181.512 243.845 181.743 243.574 181.912C243.31 182.081 243.009 182.165 242.672 182.165L242.419 181.274C242.719 181.274 242.965 181.179 243.156 180.988C243.346 180.79 243.442 180.537 243.442 180.229ZM240.912 180.196H241.352C241.352 180.519 241.451 180.779 241.649 180.977C241.847 181.175 242.103 181.274 242.419 181.274L242.672 182.165C242.334 182.165 242.034 182.081 241.77 181.912C241.506 181.736 241.297 181.501 241.143 181.208C240.989 180.907 240.912 180.57 240.912 180.196ZM245.891 182V174.08H246.892V182H245.891ZM248.558 179.525V178.81H252.309V179.525H248.558ZM250.263 182.176V181.307H250.318V182.176H250.263ZM248.239 180.031V178.414H249.24V180.031H248.239ZM251.308 178.81V178.238H252.309V178.81H251.308ZM252.309 178.238H251.308C251.308 177.915 251.209 177.651 251.011 177.446C250.821 177.241 250.571 177.138 250.263 177.138V176.28C250.659 176.28 251.008 176.364 251.308 176.533C251.616 176.702 251.858 176.936 252.034 177.237C252.218 177.53 252.309 177.864 252.309 178.238ZM251.352 180.35L252.287 180.537C252.243 180.852 252.13 181.135 251.946 181.384C251.763 181.633 251.532 181.828 251.253 181.967C250.975 182.106 250.663 182.176 250.318 182.176V181.307C250.582 181.307 250.81 181.23 251 181.076C251.198 180.915 251.316 180.673 251.352 180.35ZM248.239 178.425C248.239 178.007 248.327 177.64 248.503 177.325C248.687 177.002 248.929 176.749 249.229 176.566C249.537 176.375 249.886 176.28 250.274 176.28V177.138C249.952 177.138 249.699 177.252 249.515 177.479C249.332 177.699 249.24 178.014 249.24 178.425H248.239ZM248.239 180.031H249.24C249.24 180.434 249.332 180.75 249.515 180.977C249.699 181.197 249.952 181.307 250.274 181.307V182.176C249.886 182.176 249.537 182.084 249.229 181.901C248.929 181.71 248.687 181.454 248.503 181.131C248.327 180.808 248.239 180.442 248.239 180.031Z" fill="#747888"/>
</g>
<defs>
<filter id="filter0_d_683_1351" x="180" y="57" width="60" height="60" filterUnits="userSpaceOnUse" color-interpolation-filters="sRGB">
<feFlood flood-opacity="0" result="BackgroundImageFix"/>
<feColorMatrix in="SourceAlpha" type="matrix" values="0 0 0 0 0 0 0 0 0 0 0 0 0 0 0 0 0 0 127 0" result="hardAlpha"/>
<feOffset dy="4"/>
<feGaussianBlur stdDeviation="4.5"/>
<feComposite in2="hardAlpha" operator="out"/>
<feColorMatrix type="matrix" values="0 0 0 0 0.145098 0 0 0 0 0.152941 0 0 0 0 0.184314 0 0 0 0.1 0"/>
<feBlend mode="normal" in2="BackgroundImageFix" result="effect1_dropShadow_683_1351"/>
<feBlend mode="normal" in="SourceGraphic" in2="effect1_dropShadow_683_1351" result="shape"/>
</filter>
<filter id="filter1_d_683_1351" x="0" y="163" width="270" height="40" filterUnits="userSpaceOnUse" color-interpolation-filters="sRGB">
<feFlood flood-opacity="0" result="BackgroundImageFix"/>
<feColorMatrix in="SourceAlpha" type="matrix" values="0 0 0 0 0 0 0 0 0 0 0 0 0 0 0 0 0 0 127 0" result="hardAlpha"/>
<feOffset dy="4"/>
<feGaussianBlur stdDeviation="4.5"/>
<feComposite in2="hardAlpha" operator="out"/>
<feColorMatrix type="matrix" values="0 0 0 0 0.145098 0 0 0 0 0.152941 0 0 0 0 0.184314 0 0 0 0.1 0"/>
<feBlend mode="normal" in2="BackgroundImageFix" result="effect1_dropShadow_683_1351"/>
<feBlend mode="normal" in="SourceGraphic" in2="effect1_dropShadow_683_1351" result="shape"/>
</filter>
</defs>
</svg>
