<svg width="76" height="76" viewBox="0 0 76 76" fill="none" xmlns="http://www.w3.org/2000/svg">
<g filter="url(#filter0_d_738_5383)">
<rect x="11.3574" y="6.30957" width="53" height="53" rx="26.5" fill="#FEFEFE" shape-rendering="crispEdges"/>
<path d="M51.1079 24.2921V31.8636C51.1081 32.0509 51.0527 32.234 50.9487 32.3898C50.8447 32.5455 50.6968 32.667 50.5238 32.7386C50.3508 32.8103 50.1604 32.8291 49.9767 32.7925C49.793 32.7559 49.6243 32.6657 49.4919 32.5332L46.3758 29.4159L39.474 36.3189C39.3861 36.4069 39.2817 36.4767 39.1668 36.5243C39.0519 36.5719 38.9288 36.5964 38.8044 36.5964C38.68 36.5964 38.5568 36.5719 38.442 36.5243C38.3271 36.4767 38.2227 36.4069 38.1348 36.3189L34.0722 32.2551L26.224 40.1046C26.0464 40.2822 25.8055 40.3819 25.5544 40.3819C25.3032 40.3819 25.0624 40.2822 24.8848 40.1046C24.7072 39.927 24.6074 39.6861 24.6074 39.435C24.6074 39.1838 24.7072 38.943 24.8848 38.7654L33.4026 30.2475C33.4905 30.1595 33.5949 30.0897 33.7098 30.0421C33.8247 29.9945 33.9479 29.97 34.0722 29.97C34.1966 29.97 34.3198 29.9945 34.4347 30.0421C34.5496 30.0897 34.6539 30.1595 34.7418 30.2475L38.8044 34.3113L45.0378 28.0778L41.9205 24.9617C41.788 24.8294 41.6977 24.6607 41.6611 24.477C41.6246 24.2933 41.6433 24.1029 41.715 23.9298C41.7867 23.7568 41.9081 23.609 42.0639 23.505C42.2197 23.401 42.4028 23.3456 42.5901 23.3457H50.1615C50.4125 23.3457 50.6533 23.4454 50.8307 23.6229C51.0082 23.8004 51.1079 24.0411 51.1079 24.2921Z" fill="#2A4947"/>
</g>
<defs>
<filter id="filter0_d_738_5383" x="0.000279427" y="4.673e-05" width="75.7143" height="75.7143" filterUnits="userSpaceOnUse" color-interpolation-filters="sRGB">
<feFlood flood-opacity="0" result="BackgroundImageFix"/>
<feColorMatrix in="SourceAlpha" type="matrix" values="0 0 0 0 0 0 0 0 0 0 0 0 0 0 0 0 0 0 127 0" result="hardAlpha"/>
<feOffset dy="5.04762"/>
<feGaussianBlur stdDeviation="5.67857"/>
<feComposite in2="hardAlpha" operator="out"/>
<feColorMatrix type="matrix" values="0 0 0 0 0.145098 0 0 0 0 0.152941 0 0 0 0 0.184314 0 0 0 0.1 0"/>
<feBlend mode="normal" in2="BackgroundImageFix" result="effect1_dropShadow_738_5383"/>
<feBlend mode="normal" in="SourceGraphic" in2="effect1_dropShadow_738_5383" result="shape"/>
</filter>
</defs>
</svg>
