<svg width="112" height="41" viewBox="0 0 112 41" fill="none" xmlns="http://www.w3.org/2000/svg">
<path d="M16 7.5C13.4288 7.5 10.9154 8.26244 8.77759 9.6909C6.63975 11.1194 4.97351 13.1497 3.98957 15.5251C3.00563 17.9006 2.74819 20.5144 3.2498 23.0362C3.75141 25.5579 4.98953 27.8743 6.80762 29.6924C8.6257 31.5105 10.9421 32.7486 13.4638 33.2502C15.9856 33.7518 18.5995 33.4944 20.9749 32.5104C23.3503 31.5265 25.3807 29.8603 26.8091 27.7224C28.2376 25.5846 29 23.0712 29 20.5C28.996 17.0534 27.6251 13.7491 25.188 11.312C22.7509 8.87488 19.4466 7.50397 16 7.5ZM25.795 15.5H21.3388C20.7776 13.4411 19.8318 11.5071 18.5513 9.8C20.0984 10.1717 21.5469 10.8735 22.7974 11.8573C24.0479 12.8412 25.0709 14.0838 25.7963 15.5H25.795ZM27 20.5C27.0009 21.5145 26.8608 22.5241 26.5838 23.5H21.77C22.0767 21.5118 22.0767 19.4882 21.77 17.5H26.5838C26.8608 18.4759 27.0009 19.4855 27 20.5ZM16 9.875C17.4974 11.4782 18.609 13.402 19.25 15.5H12.75C13.3904 13.4018 14.502 11.4777 16 9.875ZM12.75 25.5H19.25C18.6096 27.5982 17.498 29.5223 16 31.125C14.5026 29.5218 13.391 27.598 12.75 25.5ZM12.2625 23.5C11.9192 21.5147 11.9192 19.4853 12.2625 17.5H19.7475C20.0908 19.4853 20.0908 21.5147 19.7475 23.5H12.2625ZM18.5563 31.2C19.8368 29.4929 20.7826 27.5589 21.3438 25.5H25.8013C25.0754 26.9168 24.0516 28.1597 22.8002 29.1436C21.5488 30.1275 20.0993 30.829 18.5513 31.2H18.5563Z" fill="#152320"/>
<path d="M49 20.852V18.22H55.132V20.852H49ZM51.884 24.016V18.304H55.132V24.016H51.884ZM43.4 23.988V14.104H46.648V23.988H43.4ZM43.4 14.132C43.4 13.068 43.652 12.1253 44.156 11.304C44.66 10.4827 45.3507 9.83867 46.228 9.372C47.124 8.90533 48.1413 8.672 49.28 8.672V11.304C48.4587 11.304 47.8147 11.556 47.348 12.06C46.8813 12.5453 46.648 13.236 46.648 14.132H43.4ZM43.4 23.988H46.648C46.648 24.8653 46.8813 25.556 47.348 26.06C47.8147 26.5453 48.4587 26.788 49.28 26.788V29.448C48.1413 29.448 47.124 29.2147 46.228 28.748C45.3507 28.2813 44.66 27.6373 44.156 26.816C43.652 25.9947 43.4 25.052 43.4 23.988ZM52.332 14.916C52.2387 13.796 51.9213 12.9187 51.38 12.284C50.8387 11.6307 50.1293 11.304 49.252 11.304V8.672C50.9507 8.672 52.332 9.176 53.396 10.184C54.46 11.1733 55.0853 12.5733 55.272 14.384L52.332 14.916ZM55.132 23.988C55.132 25.052 54.88 25.9947 54.376 26.816C53.872 27.6373 53.1813 28.2813 52.304 28.748C51.4267 29.2147 50.4093 29.448 49.252 29.448V26.788C50.0733 26.788 50.7173 26.5453 51.184 26.06C51.6507 25.556 51.884 24.8653 51.884 23.988H55.132ZM58.7803 29V8.672H62.0283V29H58.7803ZM72.8077 23.568V20.152H76.0557V23.568H72.8077ZM64.8277 23.568V20.152H68.0757V23.568H64.8277ZM70.3437 16.932V14.3H70.5677V16.932H70.3437ZM70.3437 29.42V26.76H70.5677V29.42H70.3437ZM64.8277 20.18C64.8277 19.0413 65.0703 18.0333 65.5557 17.156C66.041 16.2787 66.7037 15.588 67.5437 15.084C68.3837 14.5613 69.3263 14.3 70.3717 14.3V16.932C69.6623 16.932 69.1023 17.2213 68.6917 17.8C68.281 18.36 68.0757 19.1533 68.0757 20.18H64.8277ZM76.0557 20.18H72.8077C72.8077 19.1533 72.6023 18.36 72.1917 17.8C71.7997 17.2213 71.2397 16.932 70.5117 16.932V14.3C71.5757 14.3 72.5183 14.5613 73.3397 15.084C74.1797 15.588 74.8423 16.2787 75.3277 17.156C75.813 18.0333 76.0557 19.0413 76.0557 20.18ZM64.8277 23.54H68.0757C68.0757 24.548 68.281 25.3413 68.6917 25.92C69.1023 26.48 69.6623 26.76 70.3717 26.76V29.42C69.3263 29.42 68.3837 29.168 67.5437 28.664C66.7037 28.1413 66.041 27.4413 65.5557 26.564C65.0703 25.668 64.8277 24.66 64.8277 23.54ZM76.0557 23.54C76.0557 24.66 75.813 25.668 75.3277 26.564C74.8423 27.4413 74.1797 28.1413 73.3397 28.664C72.5183 29.168 71.5757 29.42 70.5117 29.42V26.76C71.2397 26.76 71.7997 26.48 72.1917 25.92C72.6023 25.3413 72.8077 24.548 72.8077 23.54H76.0557ZM78.5706 14.748V9.12H81.8186V14.748H78.5706ZM81.8186 29H78.5706V14.72H81.8186V29ZM89.8266 24.184H86.5786V19.536H89.8266V24.184ZM86.5786 19.536C86.5786 18.752 86.364 18.1267 85.9346 17.66C85.5053 17.1933 84.9546 16.96 84.2826 16.96L85.1786 14.272C86.056 14.272 86.84 14.5053 87.5306 14.972C88.24 15.42 88.8 16.0453 89.2106 16.848C89.6213 17.632 89.8266 18.528 89.8266 19.536H86.5786ZM80.6426 19.676C80.6426 18.6493 80.8386 17.7253 81.2306 16.904C81.6413 16.0827 82.1826 15.4387 82.8546 14.972C83.5453 14.5053 84.32 14.272 85.1786 14.272L84.2826 16.96C83.5546 16.96 82.9573 17.212 82.4906 17.716C82.0426 18.2013 81.8186 18.8547 81.8186 19.676H80.6426ZM86.5786 24.184H89.8266C89.8266 25.1733 89.6213 26.0693 89.2106 26.872C88.8 27.656 88.24 28.2813 87.5306 28.748C86.84 29.196 86.056 29.42 85.1786 29.42L84.2826 26.732C84.9546 26.732 85.5053 26.4987 85.9346 26.032C86.364 25.5653 86.5786 24.9493 86.5786 24.184ZM80.6426 24.044H81.8186C81.8186 24.8467 82.0426 25.5 82.4906 26.004C82.9573 26.4893 83.5546 26.732 84.2826 26.732L85.1786 29.42C84.32 29.42 83.5453 29.1867 82.8546 28.72C82.1826 28.2533 81.6413 27.6187 81.2306 26.816C80.8386 25.9947 80.6426 25.0707 80.6426 24.044ZM100.185 29V19.508H103.433V29H100.185ZM96.8253 29.42L97.2453 26.9C97.8426 26.9 98.356 26.7507 98.7853 26.452C99.2333 26.1347 99.5786 25.6867 99.8213 25.108C100.064 24.5293 100.185 23.848 100.185 23.064L101.641 22.924C101.641 24.1747 101.427 25.2947 100.997 26.284C100.568 27.2547 99.9893 28.02 99.2613 28.58C98.552 29.14 97.74 29.42 96.8253 29.42ZM96.8253 29.42C95.948 29.42 95.1546 29.224 94.4453 28.832C93.7546 28.44 93.204 27.908 92.7933 27.236C92.4013 26.5453 92.2053 25.7707 92.2053 24.912L95.1733 24.772C95.1733 25.388 95.3786 25.9013 95.7893 26.312C96.2186 26.704 96.704 26.9 97.2453 26.9L96.8253 29.42ZM92.2053 24.912C92.2053 24.0533 92.4293 23.288 92.8773 22.616C93.344 21.944 93.9693 21.412 94.7533 21.02C95.5373 20.6093 96.4146 20.404 97.3853 20.404L97.6653 22.644C96.9373 22.644 96.34 22.84 95.8733 23.232C95.4066 23.624 95.1733 24.1373 95.1733 24.772L92.2053 24.912ZM97.6653 22.644L97.3853 20.404H101.361V22.644H97.6653ZM100.185 23.064V19.648H101.641V22.924L100.185 23.064ZM103.433 19.676H100.185C100.185 18.8547 99.9613 18.192 99.5133 17.688C99.084 17.184 98.524 16.932 97.8333 16.932V14.272C98.8973 14.272 99.8493 14.5053 100.689 14.972C101.548 15.4387 102.22 16.0827 102.705 16.904C103.191 17.7253 103.433 18.6493 103.433 19.676ZM95.4813 19.284L92.5413 18.724C92.6906 17.828 92.9986 17.0533 93.4653 16.4C93.9506 15.728 94.5666 15.2053 95.3133 14.832C96.0786 14.4587 96.9186 14.272 97.8333 14.272V16.932C97.236 16.932 96.7133 17.128 96.2653 17.52C95.836 17.912 95.5746 18.5 95.4813 19.284ZM106.523 29V8.672H109.771V29H106.523Z" fill="#152320"/>
</svg>
