<svg width="133" height="144" viewBox="0 0 133 144" fill="none" xmlns="http://www.w3.org/2000/svg">
<g filter="url(#filter0_d_738_5409)">
<rect x="132" y="1" width="140" height="129" rx="12" transform="rotate(90 132 1)" fill="#EFF3F3"/>
</g>
<rect x="50" y="23" width="68" height="14" rx="4" fill="#6C7674" fill-opacity="0.2"/>
<rect x="50" y="64" width="68" height="14" rx="4" fill="#6C7674" fill-opacity="0.2"/>
<rect x="50" y="105" width="68" height="14" rx="4" fill="#6C7674" fill-opacity="0.2"/>
<circle cx="29" cy="29" r="14" fill="#CEEE6A"/>
<path d="M35.0045 27.0691L28.317 33.7566C28.1607 33.9128 27.9489 34.0005 27.7279 34.0005C27.507 34.0005 27.2951 33.9128 27.1389 33.7566L23.4087 30.0066C23.2527 29.8504 23.165 29.6386 23.165 29.4178C23.165 29.1971 23.2527 28.9853 23.4087 28.829L24.4503 27.7874C24.6065 27.6318 24.8179 27.5445 25.0384 27.5445C25.2588 27.5445 25.4702 27.6318 25.6264 27.7874L27.7488 29.8457L32.7884 24.8681C32.9446 24.7124 33.1561 24.625 33.3766 24.625C33.5972 24.625 33.8087 24.7124 33.9649 24.8681L35.004 25.8858C35.0821 25.9632 35.1442 26.0554 35.1865 26.1569C35.2289 26.2584 35.2507 26.3674 35.2507 26.4774C35.2508 26.5874 35.229 26.6963 35.1868 26.7979C35.1445 26.8994 35.0826 26.9916 35.0045 27.0691Z" fill="#2A4947"/>
<circle cx="29" cy="71.1357" r="14" fill="#CEEE6A"/>
<path d="M35.0045 69.2049L28.317 75.8924C28.1607 76.0486 27.9489 76.1363 27.7279 76.1363C27.507 76.1363 27.2951 76.0486 27.1389 75.8924L23.4087 72.1424C23.2527 71.9861 23.165 71.7744 23.165 71.5536C23.165 71.3328 23.2527 71.121 23.4087 70.9648L24.4503 69.9231C24.6065 69.7676 24.8179 69.6803 25.0384 69.6803C25.2588 69.6803 25.4702 69.7676 25.6264 69.9231L27.7488 71.9815L32.7884 67.0038C32.9446 66.8482 33.1561 66.7607 33.3766 66.7607C33.5972 66.7607 33.8087 66.8482 33.9649 67.0038L35.004 68.0216C35.0821 68.099 35.1442 68.1911 35.1865 68.2927C35.2289 68.3942 35.2507 68.5031 35.2507 68.6131C35.2508 68.7231 35.229 68.8321 35.1868 68.9336C35.1445 69.0352 35.0826 69.1274 35.0045 69.2049Z" fill="#2A4947"/>
<circle cx="29" cy="113.271" r="14" fill="#CEEE6A"/>
<path d="M35.0045 111.341L28.317 118.028C28.1607 118.184 27.9489 118.272 27.7279 118.272C27.507 118.272 27.2951 118.184 27.1389 118.028L23.4087 114.278C23.2527 114.122 23.165 113.91 23.165 113.689C23.165 113.469 23.2527 113.257 23.4087 113.101L24.4503 112.059C24.6065 111.903 24.8179 111.816 25.0384 111.816C25.2588 111.816 25.4702 111.903 25.6264 112.059L27.7488 114.117L32.7884 109.14C32.9446 108.984 33.1561 108.896 33.3766 108.896C33.5972 108.896 33.8087 108.984 33.9649 109.14L35.004 110.157C35.0821 110.235 35.1442 110.327 35.1865 110.428C35.2289 110.53 35.2507 110.639 35.2507 110.749C35.2508 110.859 35.229 110.968 35.1868 111.069C35.1445 111.171 35.0826 111.263 35.0045 111.341Z" fill="#2A4947"/>
<defs>
<filter id="filter0_d_738_5409" x="0" y="0" width="133" height="144" filterUnits="userSpaceOnUse" color-interpolation-filters="sRGB">
<feFlood flood-opacity="0" result="BackgroundImageFix"/>
<feColorMatrix in="SourceAlpha" type="matrix" values="0 0 0 0 0 0 0 0 0 0 0 0 0 0 0 0 0 0 127 0" result="hardAlpha"/>
<feOffset dx="-1" dy="1"/>
<feGaussianBlur stdDeviation="1"/>
<feComposite in2="hardAlpha" operator="out"/>
<feColorMatrix type="matrix" values="0 0 0 0 0 0 0 0 0 0 0 0 0 0 0 0 0 0 0.15 0"/>
<feBlend mode="normal" in2="BackgroundImageFix" result="effect1_dropShadow_738_5409"/>
<feBlend mode="normal" in="SourceGraphic" in2="effect1_dropShadow_738_5409" result="shape"/>
</filter>
</defs>
</svg>
